<svg xmlns="http://www.w3.org/2000/svg" width="102.782" height="48.14" viewBox="0 0 102.782 48.14">
  <g id="그룹_1275" data-name="그룹 1275" transform="translate(-69.023 -608.198)">
    <path id="패스_730" data-name="패스 730" d="M102.429,639.332c-6.027,12.7-17.594,19.841-25.833,15.94S66.563,637.909,72.59,625.2s17.594-19.841,25.834-15.94S108.456,626.627,102.429,639.332Z" transform="translate(0 0)" fill="#f8f8fa"/>
    <g id="그룹_1272" data-name="그룹 1272" transform="translate(75.432 624.047)">
      <g id="그룹_1270" data-name="그룹 1270">
        <path id="패스_731" data-name="패스 731" d="M97.8,658.86H90.115l-1.109,3.634H82.064l8.255-21.983h7.457l8.245,21.983H98.9ZM96.366,654.1l-2.39-7.9-2.41,7.9Z" transform="translate(-82.064 -640.511)" fill="#f8f8fa"/>
        <path id="패스_732" data-name="패스 732" d="M146.133,659.509h3.678v11.855h-3.678Z" transform="translate(-114.685 -650.173)" fill="#f8f8fa"/>
        <path id="패스_733" data-name="패스 733" d="M157.378,671.364V659.509h6.117a8.927,8.927,0,0,1,2.6.29,2.773,2.773,0,0,1,1.45,1.079,3.633,3.633,0,0,1,.129,3.62,3.3,3.3,0,0,1-1.159,1.16,4.446,4.446,0,0,1-1.289.468,3.68,3.68,0,0,1,.955.439,3.717,3.717,0,0,1,.586.627,4.661,4.661,0,0,1,.514.739l1.782,3.432h-4.14l-1.97-3.625a2.763,2.763,0,0,0-.668-.915,1.557,1.557,0,0,0-.9-.275h-.326v4.814Zm3.677-7.065h1.555a5.62,5.62,0,0,0,.977-.161.977.977,0,0,0,.6-.37,1.181,1.181,0,0,0-.134-1.559,2.242,2.242,0,0,0-1.376-.306h-1.621Z" transform="translate(-120.414 -650.173)" fill="#f8f8fa"/>
        <path id="패스_734" data-name="패스 734" d="M191.237,669.429q.691.476.9.6.317.178.855.412l-1.028,2.056a11.865,11.865,0,0,1-1.526-.887,12.79,12.79,0,0,1-1.056-.774,7.713,7.713,0,0,1-3.047.524,6.159,6.159,0,0,1-4.271-1.4,5.97,5.97,0,0,1-1.847-4.676,5.621,5.621,0,0,1,6.137-6.162,6.24,6.24,0,0,1,4.569,1.584,6.072,6.072,0,0,1,1.609,4.53A6.4,6.4,0,0,1,191.237,669.429Zm-2.817-1.871a4.914,4.914,0,0,0,.438-2.339,3.884,3.884,0,0,0-.668-2.556,2.313,2.313,0,0,0-1.84-.767,2.236,2.236,0,0,0-1.772.782,3.669,3.669,0,0,0-.68,2.444,4.26,4.26,0,0,0,.662,2.718,2.254,2.254,0,0,0,1.818.782,3.359,3.359,0,0,0,.7-.072,4.542,4.542,0,0,0-1.458-.839l.573-1.315a3.122,3.122,0,0,1,.759.218,9.684,9.684,0,0,1,1.059.677C188.138,667.379,188.273,667.467,188.419,667.558Z" transform="translate(-132.046 -649.972)" fill="#f8f8fa"/>
        <path id="패스_735" data-name="패스 735" d="M215.336,659.509h3.653v7.058a5.931,5.931,0,0,1-.328,1.982,4.289,4.289,0,0,1-1.028,1.631,4.111,4.111,0,0,1-1.469.981,7.415,7.415,0,0,1-2.566.4,16.22,16.22,0,0,1-1.89-.121,4.974,4.974,0,0,1-1.712-.48,4.3,4.3,0,0,1-1.259-1.022,3.747,3.747,0,0,1-.781-1.365,7.053,7.053,0,0,1-.34-2v-7.058h3.653v7.231a2.062,2.062,0,0,0,.54,1.515,2.333,2.333,0,0,0,2.986.007,2.055,2.055,0,0,0,.54-1.522Z" transform="translate(-145.996 -650.173)" fill="#f8f8fa"/>
        <path id="패스_736" data-name="패스 736" d="M238.856,669.4h-4.147l-.6,1.96h-3.744l4.452-11.855h4.022l4.446,11.855h-3.838Zm-.776-2.564-1.289-4.26-1.3,4.26Z" transform="translate(-157.595 -650.173)" fill="#f8f8fa"/>
        <path id="패스_737" data-name="패스 737" d="M252.1,659.509h4.073l2.383,3.985,2.41-3.985h4.054L260.4,666.4v4.965h-3.678V666.4Z" transform="translate(-168.649 -650.173)" fill="#f8f8fa"/>
      </g>
      <g id="그룹_1271" data-name="그룹 1271">
        <path id="패스_738" data-name="패스 738" d="M97.8,658.86H90.115l-1.109,3.634H82.064l8.255-21.983h7.457l8.245,21.983H98.9ZM96.366,654.1l-2.39-7.9-2.41,7.9Z" transform="translate(-82.064 -640.511)" fill="#19a0e5"/>
      </g>
    </g>
    <rect id="사각형_1050" data-name="사각형 1050" width="1.816" height="1.815" transform="translate(83.972 620.138)" fill="#19a0e5"/>
    <rect id="사각형_1051" data-name="사각형 1051" width="1.816" height="1.816" transform="translate(86.14 616.658)" fill="#19a0e5"/>
    <rect id="사각형_1052" data-name="사각형 1052" width="1.816" height="1.816" transform="translate(86.109 621.967)" fill="#19a0e5"/>
    <rect id="사각형_1053" data-name="사각형 1053" width="1.816" height="1.816" transform="translate(81.414 616.778)" fill="#19a0e5"/>
    <rect id="사각형_1054" data-name="사각형 1054" width="1.816" height="1.815" transform="translate(82.296 612.462)" fill="#19a0e5"/>
    <rect id="사각형_1055" data-name="사각형 1055" width="1.816" height="1.815" transform="translate(76.611 612.038)" fill="#f8f8fa"/>
    <rect id="사각형_1056" data-name="사각형 1056" width="1.816" height="1.816" transform="translate(78.831 608.465)" fill="#f8f8fa"/>
    <rect id="사각형_1057" data-name="사각형 1057" width="1.816" height="1.816" transform="translate(83.859 624.059)" fill="#f8f8fa"/>
    <rect id="사각형_1058" data-name="사각형 1058" width="1.816" height="1.816" transform="translate(83.859 627.674)" fill="#f8f8fa"/>
    <rect id="사각형_1059" data-name="사각형 1059" width="1.816" height="1.816" transform="translate(85.647 625.862)" fill="#f8f8fa"/>
    <rect id="사각형_1060" data-name="사각형 1060" width="1.816" height="1.816" transform="translate(86.757 628.547)" fill="#f8f8fa"/>
    <rect id="사각형_1061" data-name="사각형 1061" width="1.816" height="1.816" transform="translate(81.073 628.622)" fill="#f8f8fa"/>
    <rect id="사각형_1062" data-name="사각형 1062" width="1.816" height="1.816" transform="translate(82.048 625.854)" fill="#f8f8fa"/>
  </g>
</svg>
