<svg xmlns="http://www.w3.org/2000/svg" width="20" height="20" viewBox="0 0 20 20">
  <g id="그룹_1645" data-name="그룹 1645" transform="translate(-884 -522.32)">
    <rect id="사각형_1132" data-name="사각형 1132" width="20" height="20" transform="translate(884 522.32)" fill="#fff"/>
    <path id="패스_862" data-name="패스 862" d="M982.792,2183a12.339,12.339,0,0,0,2.4,7.469,8.466,8.466,0,0,1-5.61-7.469Zm-3.207-1.016h3.207a12.339,12.339,0,0,1,2.4-7.469A8.465,8.465,0,0,0,979.585,2181.98Zm5.627-5.7a12.785,12.785,0,0,0-1.4,5.7h3.717v-7.889A4.2,4.2,0,0,0,985.212,2176.275Zm0,12.426a4.2,4.2,0,0,0,2.315,2.185V2183H983.81A12.782,12.782,0,0,0,985.212,2188.7Zm3.331-5.7v7.889a4.2,4.2,0,0,0,2.315-2.185,12.781,12.781,0,0,0,1.4-5.7Zm0-8.905v7.889h3.717a12.783,12.783,0,0,0-1.4-5.7A4.2,4.2,0,0,0,988.543,2174.091Zm2.332.42a12.339,12.339,0,0,1,2.4,7.469h3.207A8.465,8.465,0,0,0,990.875,2174.511Zm0,15.955a8.466,8.466,0,0,0,5.61-7.469h-3.207A12.339,12.339,0,0,1,990.875,2190.466Z" transform="translate(-93.903 -1650.328)" fill="#cfd8dc"/>
  </g>
</svg>
