<svg xmlns="http://www.w3.org/2000/svg" width="80" height="80" viewBox="0 0 80 80">
  <g id="그룹_2153" data-name="그룹 2153" transform="translate(-1198.323 -1645.481)">
    <rect id="사각형_1502" data-name="사각형 1502" width="80" height="80" transform="translate(1198.323 1645.481)" fill="none"/>
    <g id="그룹_2151" data-name="그룹 2151">
      <path id="패스_1011" data-name="패스 1011" d="M1248.382,1654.407a32.777,32.777,0,0,0-30.6,5.637l1.66,1.66a30.173,30.173,0,0,1,27.654-5.248,1.167,1.167,0,0,1,.779,1.456,1.1,1.1,0,0,1-.058.153l-.756,1.628,9.522.261-6.024-7.806-.76,1.64A1.169,1.169,0,0,1,1248.382,1654.407Z" fill="#ff7474"/>
      <path id="패스_1012" data-name="패스 1012" d="M1204.934,1673.227l1.64.76a1.17,1.17,0,0,1,.621,1.422,32.782,32.782,0,0,0,5.635,30.6l1.661-1.661a30.175,30.175,0,0,1-5.247-27.655,1.168,1.168,0,0,1,1.457-.778,1.033,1.033,0,0,1,.151.058l1.628.755.263-9.523Z" fill="#ff7474"/>
      <path id="패스_1013" data-name="패스 1013" d="M1257.132,1709.3a30.173,30.173,0,0,1-27.654,5.248,1.167,1.167,0,0,1-.779-1.456,1.1,1.1,0,0,1,.058-.153l.755-1.628-9.522-.262,6.025,7.808.76-1.64a1.169,1.169,0,0,1,1.42-.62,32.779,32.779,0,0,0,30.6-5.637Z" fill="#ff7474"/>
      <path id="패스_1014" data-name="패스 1014" d="M1271.644,1697.776l-1.64-.76a1.166,1.166,0,0,1-.621-1.422,32.782,32.782,0,0,0-5.635-30.6l-1.661,1.66a30.175,30.175,0,0,1,5.247,27.655,1.167,1.167,0,0,1-1.457.778,1.2,1.2,0,0,1-.152-.057l-1.627-.756-.263,9.523Z" fill="#ff7474"/>
      <g id="그룹_2150" data-name="그룹 2150">
        <path id="패스_1015" data-name="패스 1015" d="M1226,1686.671c.218,7.35,2.409,13.752,5.631,17.506a19.84,19.84,0,0,1-13.148-17.506Zm-7.517-2.381H1226c.218-7.35,2.409-13.752,5.631-17.506A19.84,19.84,0,0,0,1218.485,1684.29Zm13.188-13.371a29.975,29.975,0,0,0-3.286,13.371h8.711V1665.8C1235.142,1666.327,1233.217,1668.129,1231.673,1670.919Zm0,29.123c1.544,2.79,3.469,4.591,5.425,5.119v-18.49h-8.711A29.974,29.974,0,0,0,1231.673,1700.042Zm7.807-13.371v18.49c1.956-.528,3.881-2.329,5.425-5.119a29.974,29.974,0,0,0,3.286-13.371Zm0-20.872v18.491h8.711a29.975,29.975,0,0,0-3.286-13.371C1243.361,1668.129,1241.436,1666.327,1239.48,1665.8Zm5.465.985c3.222,3.754,5.413,10.156,5.631,17.506h7.517A19.84,19.84,0,0,0,1244.945,1666.784Zm0,37.393a19.84,19.84,0,0,0,13.148-17.506h-7.517C1250.358,1694.021,1248.167,1700.423,1244.945,1704.177Z" fill="#ff7474"/>
      </g>
    </g>
  </g>
</svg>
