<svg xmlns="http://www.w3.org/2000/svg" width="16" height="16" viewBox="0 0 16 16">
  <g id="그룹_1564" data-name="그룹 1564" transform="translate(-679.464 -1804.659)">
    <rect id="사각형_1176" data-name="사각형 1176" width="16" height="16" transform="translate(679.464 1804.659)" fill="#fff"/>
    <g id="그룹_1514" data-name="그룹 1514" transform="translate(680.794 1805.674)">
      <path id="패스_890" data-name="패스 890" d="M697.047,1806.65a.278.278,0,0,0-.312.271v2.79a.275.275,0,0,0,.208.266,3.544,3.544,0,0,1,2.193,5.272.273.273,0,0,0,.041.334l1.974,1.974a.274.274,0,0,0,.194.082l.019,0a.277.277,0,0,0,.2-.107,6.8,6.8,0,0,0,1.366-4.1A6.873,6.873,0,0,0,697.047,1806.65Z" transform="translate(-689.242 -1806.647)" fill="#cfd8dc"/>
      <path id="패스_891" data-name="패스 891" d="M688.911,1820.278a6.791,6.791,0,0,0,4.06-1.336.268.268,0,0,0,.112-.2.276.276,0,0,0-.08-.214l-1.979-1.977a.27.27,0,0,0-.332-.044,3.555,3.555,0,1,1-2.7-6.507.276.276,0,0,0,.2-.266v-2.8a.272.272,0,0,0-.093-.208.282.282,0,0,0-.222-.063,6.846,6.846,0,0,0,1.034,13.612Z" transform="translate(-682.067 -1806.655)" fill="#cfd8dc"/>
    </g>
  </g>
</svg>
