<svg xmlns="http://www.w3.org/2000/svg" width="50" height="50" viewBox="0 0 50 50">
  <defs>
    <style>
      .cls-1 {
        fill: none;
      }

      .cls-2 {
        fill: #fff;
      }
    </style>
  </defs>
  <g id="그룹_2191" data-name="그룹 2191" transform="translate(-543.698 -1647.242)">
    <rect id="사각형_1507" data-name="사각형 1507" class="cls-1" width="50" height="50" transform="translate(543.698 1647.242)"/>
    <g id="그룹_2190" data-name="그룹 2190" transform="translate(545.535 1655.488)">
      <g id="그룹_2189" data-name="그룹 2189">
        <path id="패스_1034" data-name="패스 1034" class="cls-2" d="M555.022,1658.63a2.027,2.027,0,1,0-2.867-2.866,22.917,22.917,0,0,0,0,32.369,2.027,2.027,0,1,0,2.867-2.866A18.858,18.858,0,0,1,555.022,1658.63Z" transform="translate(-545.464 -1655.168)"/>
        <path id="패스_1035" data-name="패스 1035" class="cls-2" d="M583.136,1655.763a2.027,2.027,0,1,0-2.867,2.866,18.859,18.859,0,0,1,0,26.637,2.028,2.028,0,0,0,2.868,2.867A22.918,22.918,0,0,0,583.136,1655.763Z" transform="translate(-544.075 -1655.168)"/>
        <path id="패스_1036" data-name="패스 1036" class="cls-2" d="M560.6,1661.436a2.025,2.025,0,0,0-2.866,0,14.537,14.537,0,0,0,0,20.564,2.026,2.026,0,1,0,2.868-2.864,10.484,10.484,0,0,1,0-14.833A2.026,2.026,0,0,0,560.6,1661.436Z" transform="translate(-545.138 -1654.938)"/>
        <path id="패스_1037" data-name="패스 1037" class="cls-2" d="M577.464,1661.435a2.028,2.028,0,0,0-2.868,2.868,10.481,10.481,0,0,1,0,14.833,2.026,2.026,0,1,0,2.868,2.864,14.536,14.536,0,0,0,0-20.564Z" transform="translate(-544.305 -1654.938)"/>
        <path id="패스_1038" data-name="패스 1038" class="cls-2" d="M573.889,1671.534a6.21,6.21,0,1,1-1.817-4.379A6.172,6.172,0,0,1,573.889,1671.534Z" transform="translate(-544.813 -1654.756)"/>
      </g>
    </g>
  </g>
</svg>
