<svg xmlns="http://www.w3.org/2000/svg" width="32" height="32" viewBox="0 0 32 32">
  <g id="그룹_928" data-name="그룹 928" transform="translate(52.177 -1074.98)">
    <rect id="사각형_845" data-name="사각형 845" width="32" height="32" transform="translate(-52.177 1074.98)" fill="#fff"/>
    <path id="패스_283" data-name="패스 283" d="M-39.09,1099.1a11.012,11.012,0,0,0,6.558-2.173l5.792,5.779a1.182,1.182,0,0,0,1.67,0l.651-.651a1.181,1.181,0,0,0,0-1.67L-30.2,1094.6a11.069,11.069,0,0,0-3-15.916,11.1,11.1,0,0,0-14.336,2.184,11.068,11.068,0,0,0,1.868,16.088A11.074,11.074,0,0,0-39.09,1099.1Zm0-18.854a7.787,7.787,0,0,1,7.787,7.787,7.787,7.787,0,0,1-7.787,7.788,7.787,7.787,0,0,1-7.788-7.788A7.787,7.787,0,0,1-39.09,1080.25Z" transform="translate(0.652 0.652)" fill="#495057"/>
  </g>
</svg>
