<svg xmlns="http://www.w3.org/2000/svg" width="50" height="50" viewBox="0 0 50 50">
  <g id="그룹_646" data-name="그룹 646" transform="translate(-0.478 -0.151)">
    <rect id="사각형_786" data-name="사각형 786" width="50" height="50" transform="translate(0.478 0.151)" fill="none"/>
    <g id="그룹_626" data-name="그룹 626" transform="translate(6.329 8.438)">
      <rect id="사각형_787" data-name="사각형 787" width="8.438" height="8.438" rx="1.867" transform="translate(29.534 25.315)" fill="#fff"/>
      <path id="패스_240" data-name="패스 240" d="M1477.207,1068.313h-31.222a3.375,3.375,0,0,0-3.375,3.376v8.046a3.374,3.374,0,0,0,3.375,3.375h14.767v4.414h-13.923a.844.844,0,0,0-.844.844v5.261H1444.3a1.688,1.688,0,0,0-1.688,1.688v5.063a1.687,1.687,0,0,0,1.688,1.688h5.063a1.687,1.687,0,0,0,1.687-1.688v-5.063a1.687,1.687,0,0,0-1.687-1.688h-1.688v-4.417h13.079v4.417h-1.688a1.688,1.688,0,0,0-1.688,1.688v5.063a1.688,1.688,0,0,0,1.688,1.688h5.063a1.688,1.688,0,0,0,1.688-1.688v-5.063a1.688,1.688,0,0,0-1.688-1.688h-1.688v-4.417h13.08v4.35h1.688v-5.194a.844.844,0,0,0-.844-.844h-13.923v-4.414h14.767a3.374,3.374,0,0,0,3.375-3.375v-8.046A3.375,3.375,0,0,0,1477.207,1068.313Zm-24.049,9.295a1.9,1.9,0,1,1,1.9-1.9A1.9,1.9,0,0,1,1453.158,1077.608Zm8.438,0a1.9,1.9,0,1,1,1.9-1.9A1.9,1.9,0,0,1,1461.6,1077.608Zm8.438,0a1.9,1.9,0,1,1,1.9-1.9A1.9,1.9,0,0,1,1470.034,1077.608Z" transform="translate(-1442.61 -1068.313)" fill="#fff"/>
    </g>
  </g>
</svg>
