<svg xmlns="http://www.w3.org/2000/svg" width="170.804" height="80" viewBox="0 0 170.804 80">
  <g id="그룹_1273" data-name="그룹 1273" transform="translate(-69.023 -608.198)">
    <path id="패스_730" data-name="패스 730" d="M124.537,659.937C114.521,681.05,95.3,692.91,81.608,686.426s-16.673-28.853-6.656-49.966,29.237-32.971,42.931-26.49S134.554,638.824,124.537,659.937Z" fill="#f8a926"/>
    <g id="그룹_1272" data-name="그룹 1272" transform="translate(79.673 634.535)">
      <g id="그룹_1270" data-name="그룹 1270">
        <path id="패스_731" data-name="패스 731" d="M108.221,671H95.443L93.6,677.043H82.064l13.718-36.532h12.393l13.7,36.532H110.048Zm-2.39-7.9-3.972-13.125L97.853,663.1Z" transform="translate(-82.064 -640.511)" fill="#fff"/>
        <path id="패스_732" data-name="패스 732" d="M146.133,659.509h6.112v19.7h-6.112Z" transform="translate(-93.872 -643.994)" fill="#006daf"/>
        <path id="패스_733" data-name="패스 733" d="M157.378,679.21v-19.7h10.165a14.829,14.829,0,0,1,4.322.483,4.608,4.608,0,0,1,2.41,1.793,6.037,6.037,0,0,1,.215,6.016,5.488,5.488,0,0,1-1.926,1.927,7.38,7.38,0,0,1-2.142.778,4.113,4.113,0,0,1,2.561,1.771,7.737,7.737,0,0,1,.854,1.228l2.961,5.7h-6.88l-3.273-6.024a4.589,4.589,0,0,0-1.111-1.52,2.588,2.588,0,0,0-1.5-.457h-.542v8Zm6.111-11.74h2.585a9.352,9.352,0,0,0,1.624-.267,1.623,1.623,0,0,0,.994-.614,1.963,1.963,0,0,0-.223-2.591,3.725,3.725,0,0,0-2.287-.508h-2.693Z" transform="translate(-95.951 -643.994)" fill="#006daf"/>
        <path id="패스_734" data-name="패스 734" d="M198.527,676.255q1.149.791,1.5.992.527.3,1.42.684l-1.708,3.416a19.7,19.7,0,0,1-2.536-1.473,21.272,21.272,0,0,1-1.754-1.287,12.818,12.818,0,0,1-5.063.871,10.235,10.235,0,0,1-7.1-2.335,9.922,9.922,0,0,1-3.07-7.77q0-4.857,2.688-7.548t7.511-2.692q4.917,0,7.592,2.632t2.675,7.529A10.631,10.631,0,0,1,198.527,676.255Zm-4.682-3.109a8.165,8.165,0,0,0,.728-3.886,6.455,6.455,0,0,0-1.11-4.248,3.845,3.845,0,0,0-3.058-1.274,3.717,3.717,0,0,0-2.945,1.3,6.1,6.1,0,0,0-1.129,4.062q0,3.217,1.1,4.516a3.746,3.746,0,0,0,3.021,1.3,5.577,5.577,0,0,0,1.168-.12A7.552,7.552,0,0,0,189.2,673.4l.952-2.185a5.176,5.176,0,0,1,1.261.363,16.1,16.1,0,0,1,1.76,1.125C193.378,672.848,193.6,672.994,193.846,673.146Z" transform="translate(-100.164 -643.922)" fill="#006daf"/>
        <path id="패스_735" data-name="패스 735" d="M220.444,659.509h6.071v11.729a9.856,9.856,0,0,1-.545,3.294,7.128,7.128,0,0,1-1.708,2.711,6.831,6.831,0,0,1-2.441,1.631,12.324,12.324,0,0,1-4.264.657,26.94,26.94,0,0,1-3.141-.2,8.266,8.266,0,0,1-2.844-.8,7.146,7.146,0,0,1-2.091-1.7,6.227,6.227,0,0,1-1.3-2.269,11.72,11.72,0,0,1-.565-3.328V659.509h6.071v12.016a3.426,3.426,0,0,0,.9,2.518,3.877,3.877,0,0,0,4.962.012,3.415,3.415,0,0,0,.9-2.53Z" transform="translate(-105.214 -643.994)" fill="#006daf"/>
        <path id="패스_736" data-name="패스 736" d="M244.474,675.953h-6.891l-.995,3.257h-6.221l7.4-19.7h6.683l7.389,19.7h-6.379Zm-1.289-4.261-2.142-7.079-2.16,7.079Z" transform="translate(-109.433 -643.994)" fill="#006daf"/>
        <path id="패스_737" data-name="패스 737" d="M252.1,659.509h6.768l3.961,6.623,4.006-6.623h6.736l-7.68,11.449v8.251h-6.112v-8.251Z" transform="translate(-113.419 -643.994)" fill="#006daf"/>
      </g>
    </g>
    <rect id="사각형_1050" data-name="사각형 1050" width="3.018" height="3.017" transform="translate(93.865 628.039)" fill="#fff"/>
    <rect id="사각형_1051" data-name="사각형 1051" width="3.018" height="3.019" transform="translate(97.468 622.257)" fill="#fff"/>
    <rect id="사각형_1052" data-name="사각형 1052" width="3.018" height="3.018" transform="translate(97.416 631.08)" fill="#fff"/>
    <rect id="사각형_1053" data-name="사각형 1053" width="3.018" height="3.019" transform="translate(89.615 622.456)" fill="#fff"/>
    <rect id="사각형_1054" data-name="사각형 1054" width="3.018" height="3.017" transform="translate(91.08 615.283)" fill="#fff"/>
    <rect id="사각형_1055" data-name="사각형 1055" width="3.018" height="3.017" transform="translate(81.633 614.578)" fill="#006daf"/>
    <rect id="사각형_1056" data-name="사각형 1056" width="3.018" height="3.018" transform="translate(85.322 608.642)" fill="#006daf"/>
    <rect id="사각형_1057" data-name="사각형 1057" width="3.018" height="3.018" transform="translate(93.677 634.555)" fill="#f8a926"/>
    <rect id="사각형_1058" data-name="사각형 1058" width="3.018" height="3.018" transform="translate(93.677 640.563)" fill="#f8a926"/>
    <rect id="사각형_1059" data-name="사각형 1059" width="3.018" height="3.019" transform="translate(96.649 637.551)" fill="#f8a926"/>
    <rect id="사각형_1060" data-name="사각형 1060" width="3.018" height="3.018" transform="translate(98.494 642.014)" fill="#f8a926"/>
    <rect id="사각형_1061" data-name="사각형 1061" width="3.018" height="3.019" transform="translate(89.047 642.139)" fill="#f8a926"/>
    <rect id="사각형_1062" data-name="사각형 1062" width="3.018" height="3.019" transform="translate(90.667 637.539)" fill="#f8a926"/>
  </g>
</svg>
