<svg xmlns="http://www.w3.org/2000/svg" width="41.616" height="40" viewBox="0 0 41.616 40">
  <defs>
    <style>
      .cls-1 {
        fill: none;
        stroke-miterlimit: 10;
      }

      .cls-2, .cls-3 {
        stroke: none;
      }

      .cls-3 {
        fill: #fff;
      }
    </style>
  </defs>
  <g id="돋보기" class="cls-1">
    <path class="cls-2" d="M36.153,39.364l-8.17-6.384A18,18,0,1,1,32.972,28l7.49,5.852a3,3,0,0,1,.518,4.211l-.616.788a3,3,0,0,1-4.211.517Z"/>
    <path class="cls-3" d="M 18 29.99999809265137 C 20.38228034973145 29.99999809265137 22.68218040466309 29.30515670776367 24.65106010437012 27.99057769775391 L 26.64911460876465 26.65651512145996 L 27.98472023010254 24.65977668762207 C 29.30311965942383 22.68875694274902 30 20.38583755493164 30 17.99999809265137 C 30 11.38317680358887 24.6168212890625 5.999997138977051 18 5.999997138977051 C 11.38318061828613 5.999997138977051 6.000000476837158 11.38317680358887 6.000000476837158 17.99999809265137 C 6.000000476837158 24.61681747436523 11.38318061828613 29.99999809265137 18 29.99999809265137 M 37.99802017211914 40.00005722045898 C 37.35208129882813 40.00011825561523 36.70154190063477 39.79251861572266 36.15299987792969 39.36419677734375 L 27.98276138305664 32.98053741455078 C 25.12606048583984 34.88789749145508 21.69284057617188 35.99999618530273 18 35.99999618530273 C 8.058600425720215 35.99999618530273 5.462646299747576e-07 27.94139671325684 5.462646299747576e-07 17.99999809265137 C 5.462646299747576e-07 8.058597564697266 8.058600425720215 -2.779541091513238e-06 18 -2.779541091513238e-06 C 27.9414005279541 -2.779541091513238e-06 36 8.058597564697266 36 17.99999809265137 C 36 21.69829750061035 34.8843994140625 25.1364574432373 32.97188186645508 27.99567794799805 L 40.46220016479492 33.84809875488281 C 41.76810073852539 34.8677978515625 41.9994010925293 36.7532958984375 40.97970199584961 38.05919647216797 L 40.36410140991211 38.84669876098633 C 39.77272033691406 39.60405731201172 38.8898811340332 39.99999618530273 37.99802017211914 40.00005722045898 Z"/>
  </g>
</svg>
