<svg xmlns="http://www.w3.org/2000/svg" width="36" height="36" viewBox="0 0 36 36">
  <g id="그룹_1641" data-name="그룹 1641" transform="translate(-719 -126)">
    <circle id="타원_86" data-name="타원 86" cx="18" cy="18" r="18" transform="translate(719 126)" fill="#5dcefb" opacity="0.2"/>
    <g id="그룹_600" data-name="그룹 600" transform="translate(142.195 670.115)">
      <rect id="사각형_779" data-name="사각형 779" width="24" height="24" transform="translate(582.805 -538.116)" fill="none"/>
      <g id="그룹_600-2" data-name="그룹 600">
        <path id="패스_224" data-name="패스 224" d="M602.174-526.078H603.4a.4.4,0,0,1,.4.4v6.954a1.609,1.609,0,0,1-1.609,1.609H587.414a1.61,1.61,0,0,1-1.609-1.609V-533.5a1.61,1.61,0,0,1,1.609-1.609h6.956a.4.4,0,0,1,.4.4v1.231a.4.4,0,0,1-.4.4h-6.53v13.929h13.931v-6.528A.4.4,0,0,1,602.174-526.078Z" fill="#19a0e5"/>
        <path id="패스_225" data-name="패스 225" d="M603.8-533.5v4.988a.4.4,0,0,1-.4.4h-1.2a.4.4,0,0,1-.4-.4v-3.073l-.03-.013-9.476,9.494a.4.4,0,0,1-.573-.005l-.827-.854a.4.4,0,0,1,.005-.562l9.571-9.548h-3.264a.4.4,0,0,1-.4-.4v-1.231a.4.4,0,0,1,.4-.4H602.2A1.61,1.61,0,0,1,603.8-533.5Z" fill="#19a0e5"/>
      </g>
    </g>
  </g>
</svg>
