<svg xmlns="http://www.w3.org/2000/svg" width="24" height="24" viewBox="0 0 24 24">
  <g id="그룹_2056" data-name="그룹 2056" transform="translate(-719 -126)">
    <circle id="타원_86" data-name="타원 86" cx="12" cy="12" r="12" transform="translate(719 126)" fill="#5dcefb" opacity="0.2"/>
    <g id="그룹_600" data-name="그룹 600" transform="translate(723.002 130.002)">
      <rect id="사각형_779" data-name="사각형 779" width="16" height="16" transform="translate(-0.002 -0.002)" fill="none"/>
      <g id="그룹_600-2" data-name="그룹 600" transform="translate(2.001 2.003)">
        <path id="패스_224" data-name="패스 224" d="M596.724-529.086h.819a.268.268,0,0,1,.269.268v4.639a1.073,1.073,0,0,1-1.073,1.073h-9.86a1.074,1.074,0,0,1-1.073-1.073v-9.86a1.074,1.074,0,0,1,1.073-1.073h4.64a.269.269,0,0,1,.269.269v.821a.269.269,0,0,1-.269.268h-4.356v9.291h9.293v-4.354A.268.268,0,0,1,596.724-529.086Z" transform="translate(-585.805 535.113)" fill="#19a0e5"/>
        <path id="패스_225" data-name="패스 225" d="M599.469-534.04v3.327a.268.268,0,0,1-.269.268h-.8a.268.268,0,0,1-.268-.268v-2.05l-.02-.009-6.321,6.333a.268.268,0,0,1-.382,0l-.552-.57a.267.267,0,0,1,0-.375l6.384-6.369h-2.177a.268.268,0,0,1-.268-.268v-.821a.269.269,0,0,1,.268-.269H598.4A1.074,1.074,0,0,1,599.469-534.04Z" transform="translate(-587.462 535.113)" fill="#19a0e5"/>
      </g>
    </g>
  </g>
</svg>
