<svg xmlns="http://www.w3.org/2000/svg" width="32" height="32" viewBox="0 0 32 32">
  <defs>
    <style>
      .cls-1 {
        fill: #5dcefb;
        opacity: 0.2;
      }

      .cls-2 {
        fill: #19a0e5;
      }
    </style>
  </defs>
  <g id="그룹_2171" data-name="그룹 2171" transform="translate(316 555) rotate(180)">
    <circle id="타원_135" data-name="타원 135" class="cls-1" cx="16" cy="16" r="16" transform="translate(284 523)"/>
    <g id="그룹_1286" data-name="그룹 1286" transform="translate(291 531)">
      <path id="Icon_ionic-ios-arrow-down" data-name="Icon ionic-ios-arrow-down" class="cls-2" d="M8,6.317,14.053.332a1.148,1.148,0,0,1,1.615,0,1.13,1.13,0,0,1,0,1.6L8.813,8.713a1.151,1.151,0,0,1-1.577.033L.333,1.938a1.127,1.127,0,0,1,0-1.6,1.148,1.148,0,0,1,1.615,0Z" transform="translate(16) rotate(90)"/>
      <path id="Icon_ionic-ios-arrow-down-2" data-name="Icon ionic-ios-arrow-down" class="cls-2" d="M8,6.317,14.053.332a1.148,1.148,0,0,1,1.615,0,1.13,1.13,0,0,1,0,1.6L8.813,8.713a1.151,1.151,0,0,1-1.577.033L.333,1.938a1.127,1.127,0,0,1,0-1.6,1.148,1.148,0,0,1,1.615,0Z" transform="translate(9.042) rotate(90)"/>
    </g>
  </g>
</svg>
