<svg xmlns="http://www.w3.org/2000/svg" width="24" height="24" viewBox="0 0 24 24">
  <g id="그룹_2088" data-name="그룹 2088" transform="translate(-934 -128)">
    <rect id="사각형_1492" data-name="사각형 1492" width="24" height="24" transform="translate(934 128)" fill="none"/>
    <path id="Icon_awesome-eye" data-name="Icon awesome-eye" d="M19.435,10.406a10.85,10.85,0,0,0-19.317,0,1.059,1.059,0,0,0,0,.972,10.85,10.85,0,0,0,19.317,0A1.059,1.059,0,0,0,19.435,10.406Zm-9.658,5.28a4.8,4.8,0,1,1,4.888-4.794A4.842,4.842,0,0,1,9.777,15.687Zm0-7.99a3.294,3.294,0,0,0-.859.126,1.57,1.57,0,0,1-.16,2.071,1.648,1.648,0,0,1-2.111.157,3.159,3.159,0,0,0,1.326,3.483,3.3,3.3,0,0,0,3.79-.117,3.153,3.153,0,0,0,1.1-3.559A3.247,3.247,0,0,0,9.777,7.7Z" transform="translate(936.256 129.516)" fill="#495057"/>
  </g>
</svg>
