<svg xmlns="http://www.w3.org/2000/svg" width="24" height="24" viewBox="0 0 24 24">
  <defs>
    <style>
      .cls-1 {
        fill: #fff;
      }

      .cls-2 {
        fill: #ced4da;
      }
    </style>
  </defs>
  <g id="그룹_2184" data-name="그룹 2184" transform="translate(-459.557 -1659.293)">
    <rect id="사각형_1505" data-name="사각형 1505" class="cls-1" width="24" height="24" transform="translate(459.557 1659.293)"/>
    <g id="그룹_2178" data-name="그룹 2178">
      <g id="그룹_2177" data-name="그룹 2177">
        <path id="패스_1026" data-name="패스 1026" class="cls-2" d="M465.033,1664.894a.974.974,0,1,0-1.378-1.377,11.011,11.011,0,0,0,0,15.553.974.974,0,1,0,1.377-1.377A9.062,9.062,0,0,1,465.033,1664.894Z"/>
        <path id="패스_1027" data-name="패스 1027" class="cls-2" d="M479.208,1663.517a.974.974,0,1,0-1.377,1.377,9.061,9.061,0,0,1,0,12.8.974.974,0,0,0,1.378,1.378A11.011,11.011,0,0,0,479.208,1663.517Z"/>
        <path id="패스_1028" data-name="패스 1028" class="cls-2" d="M467.869,1666.353a.974.974,0,0,0-1.378,0,6.986,6.986,0,0,0,0,9.881.974.974,0,0,0,1.378-1.377,5.036,5.036,0,0,1,0-7.126A.975.975,0,0,0,467.869,1666.353Z"/>
        <path id="패스_1029" data-name="패스 1029" class="cls-2" d="M476.372,1666.353a.974.974,0,1,0-1.377,1.378,5.036,5.036,0,0,1,0,7.126.974.974,0,1,0,1.378,1.377,6.984,6.984,0,0,0,0-9.881Z"/>
        <path id="패스_1030" data-name="패스 1030" class="cls-2" d="M474.41,1671.293a2.982,2.982,0,1,1-.872-2.1A2.969,2.969,0,0,1,474.41,1671.293Z"/>
      </g>
    </g>
  </g>
</svg>
