<svg xmlns="http://www.w3.org/2000/svg" width="24" height="24" viewBox="0 0 24 24">
  <defs>
    <style>
      .cls-1 {
        fill: #fff;
      }

      .cls-2 {
        fill: #ff5252;
      }
    </style>
  </defs>
  <g id="그룹_2187" data-name="그룹 2187" transform="translate(-1935.666 -1807.98)">
    <rect id="사각형_1506" data-name="사각형 1506" class="cls-1" width="24" height="24" transform="translate(1935.666 1807.98)"/>
    <g id="그룹_2182" data-name="그룹 2182">
      <circle id="타원_166" data-name="타원 166" class="cls-2" cx="1.855" cy="1.855" r="1.855" transform="translate(1945.807 1823.796)"/>
      <g id="그룹_2180" data-name="그룹 2180">
        <path id="패스_1032" data-name="패스 1032" class="cls-2" d="M1952.159,1822.754a6.782,6.782,0,0,0-8.986,0,.432.432,0,0,1-.592-.018l-1.562-1.563a.436.436,0,0,1,.019-.633,9.86,9.86,0,0,1,13.257,0,.437.437,0,0,1,.019.633l-1.562,1.563A.433.433,0,0,1,1952.159,1822.754Z"/>
      </g>
      <g id="그룹_2181" data-name="그룹 2181">
        <path id="패스_1033" data-name="패스 1033" class="cls-2" d="M1938.673,1818.828l-1.561-1.561a.437.437,0,0,1,.013-.627,15.365,15.365,0,0,1,21.082,0,.436.436,0,0,1,.013.627l-1.56,1.56a.432.432,0,0,1-.6.015,12.292,12.292,0,0,0-16.789,0A.433.433,0,0,1,1938.673,1818.828Z"/>
      </g>
    </g>
  </g>
</svg>
