<svg xmlns="http://www.w3.org/2000/svg" width="48" height="48" viewBox="0 0 48 48">
  <g id="그룹_627" data-name="그룹 627" transform="translate(-1435.61 -1058.98)">
    <rect id="사각형_786" data-name="사각형 786" width="48" height="48" transform="translate(1435.61 1058.98)" fill="none"/>
    <g id="그룹_626" data-name="그룹 626" transform="translate(1441.633 1067.011)">
      <rect id="사각형_787" data-name="사각형 787" width="8.031" height="8.031" transform="translate(28.108 24.093)" fill="#fff" stroke="rgba(0,0,0,0)" stroke-width="1"/>
      <path id="패스_240" data-name="패스 240" d="M1475.537,1068.313h-29.715a3.212,3.212,0,0,0-3.212,3.213v7.657a3.211,3.211,0,0,0,3.212,3.212h14.055v4.2h-13.251a.8.8,0,0,0-.8.8v5.007h-1.606a1.606,1.606,0,0,0-1.606,1.606v4.818a1.606,1.606,0,0,0,1.606,1.606h4.818a1.606,1.606,0,0,0,1.606-1.606v-4.818a1.606,1.606,0,0,0-1.606-1.606h-1.606v-4.2h12.448v4.2h-1.606a1.607,1.607,0,0,0-1.607,1.606v4.818a1.607,1.607,0,0,0,1.607,1.606h4.818a1.607,1.607,0,0,0,1.607-1.606v-4.818a1.607,1.607,0,0,0-1.607-1.606h-1.606v-4.2h12.448v4.14h1.606V1087.4a.8.8,0,0,0-.8-.8h-13.251v-4.2h14.054a3.211,3.211,0,0,0,3.212-3.212v-7.657A3.212,3.212,0,0,0,1475.537,1068.313Zm-22.888,8.846a1.807,1.807,0,1,1,1.807-1.807A1.8,1.8,0,0,1,1452.649,1077.159Zm8.03,0a1.807,1.807,0,1,1,1.807-1.807A1.807,1.807,0,0,1,1460.679,1077.159Zm8.031,0a1.807,1.807,0,1,1,1.807-1.807A1.807,1.807,0,0,1,1468.71,1077.159Z" transform="translate(-1442.61 -1068.313)" fill="#fff" stroke="rgba(0,0,0,0)" stroke-width="1"/>
    </g>
  </g>
</svg>
