<svg xmlns="http://www.w3.org/2000/svg" width="48" height="48" viewBox="0 0 48 48">
  <defs>
    <style>
      .cls-1 {
        fill: none;
      }

      .cls-2 {
        fill: #fff;
      }
    </style>
  </defs>
  <g id="그룹_2189" data-name="그룹 2189" transform="translate(-543.698 -1647.293)">
    <rect id="사각형_1507" data-name="사각형 1507" class="cls-1" width="48" height="48" transform="translate(543.698 1647.293)"/>
    <g id="그룹_2190" data-name="그룹 2190">
      <g id="그룹_2189-2" data-name="그룹 2189">
        <path id="패스_1034" data-name="패스 1034" class="cls-2" d="M554.649,1658.495a1.948,1.948,0,1,0-2.755-2.754,22.023,22.023,0,0,0,0,31.106,1.948,1.948,0,1,0,2.755-2.754A18.123,18.123,0,0,1,554.649,1658.495Z"/>
        <path id="패스_1035" data-name="패스 1035" class="cls-2" d="M583,1655.74a1.948,1.948,0,1,0-2.755,2.754,18.124,18.124,0,0,1,0,25.6,1.948,1.948,0,0,0,2.756,2.755A22.024,22.024,0,0,0,583,1655.74Z"/>
        <path id="패스_1036" data-name="패스 1036" class="cls-2" d="M560.321,1661.413a1.946,1.946,0,0,0-2.754,0,13.97,13.97,0,0,0,0,19.762,1.947,1.947,0,1,0,2.756-2.752,10.074,10.074,0,0,1,0-14.254A1.947,1.947,0,0,0,560.321,1661.413Z"/>
        <path id="패스_1037" data-name="패스 1037" class="cls-2" d="M577.329,1661.412a1.949,1.949,0,0,0-2.756,2.756,10.072,10.072,0,0,1,0,14.254,1.947,1.947,0,1,0,2.756,2.752,13.969,13.969,0,0,0,0-19.762Z"/>
        <path id="패스_1038" data-name="패스 1038" class="cls-2" d="M573.405,1671.292a5.968,5.968,0,1,1-1.746-4.208A5.931,5.931,0,0,1,573.405,1671.292Z"/>
      </g>
    </g>
  </g>
</svg>
