<svg xmlns="http://www.w3.org/2000/svg" width="20" height="20" viewBox="0 0 20 20">
  <g id="그룹_1513" data-name="그룹 1513" transform="translate(-679.464 -1804.25)">
    <rect id="사각형_1176" data-name="사각형 1176" width="20" height="20" transform="translate(679.464 1804.25)" fill="none"/>
    <g id="그룹_1514" data-name="그룹 1514" transform="translate(681.113 1805.67)">
      <path id="패스_890" data-name="패스 890" d="M697.122,1806.65a.344.344,0,0,0-.387.336v3.459a.341.341,0,0,0,.258.329,4.395,4.395,0,0,1,2.719,6.538.338.338,0,0,0,.051.414l2.448,2.448a.339.339,0,0,0,.241.1l.024,0a.343.343,0,0,0,.248-.132,8.437,8.437,0,0,0,1.694-5.089A8.522,8.522,0,0,0,697.122,1806.65Z" transform="translate(-687.444 -1806.647)" fill="#fff"/>
      <path id="패스_891" data-name="패스 891" d="M690.553,1823.544a8.42,8.42,0,0,0,5.034-1.656.333.333,0,0,0,.139-.248.342.342,0,0,0-.1-.265l-2.454-2.451a.335.335,0,0,0-.411-.054,4.408,4.408,0,1,1-3.354-8.069.342.342,0,0,0,.251-.329V1807a.338.338,0,0,0-.115-.258.35.35,0,0,0-.275-.079,8.488,8.488,0,0,0,1.283,16.878Z" transform="translate(-682.067 -1806.653)" fill="#fff"/>
    </g>
  </g>
</svg>
