<svg xmlns="http://www.w3.org/2000/svg" width="24" height="24" viewBox="0 0 24 24">
  <defs>
    <style>
      .cls-1 {
        fill: #fff;
      }

      .cls-2 {
        fill: #19a0e5;
      }
    </style>
  </defs>
  <g id="그룹_1487" data-name="그룹 1487" transform="translate(-449.201 -1451.001)">
    <rect id="사각형_844" data-name="사각형 844" class="cls-1" width="24" height="24" transform="translate(449.201 1451.001)"/>
    <g id="그룹_686" data-name="그룹 686">
      <path id="패스_267" data-name="패스 267" class="cls-2" d="M464.756,1454.961v1.62a.96.96,0,0,0,1.92,0v-1.62a.96.96,0,1,0-1.92,0Z"/>
      <path id="패스_268" data-name="패스 268" class="cls-2" d="M455.726,1454.961v1.62a.96.96,0,0,0,1.92,0v-1.62a.96.96,0,1,0-1.92,0Z"/>
      <path id="패스_269" data-name="패스 269" class="cls-2" d="M470.2,1459.463v11.45a1.087,1.087,0,0,1-1.088,1.088H453.288a1.087,1.087,0,0,1-1.086-1.088v-11.45Z"/>
      <path id="패스_270" data-name="패스 270" class="cls-2" d="M470.2,1456.856a1.088,1.088,0,0,0-1.087-1.087H467.4v.813a1.679,1.679,0,0,1-3.358,0v-.813h-5.67v.813a1.682,1.682,0,0,1-3.363,0v-.813h-1.717a1.09,1.09,0,0,0-1.087,1.087v1.886h18Z"/>
    </g>
  </g>
</svg>
