<svg xmlns="http://www.w3.org/2000/svg" width="48" height="48" viewBox="0 0 48 48">
  <defs>
    <style>
      .cls-1 {
        fill: none;
      }

      .cls-2 {
        fill: #fff;
      }
    </style>
  </defs>
  <g id="그룹_2089" data-name="그룹 2089" transform="translate(-0.478 -0.129)">
    <rect id="사각형_786" data-name="사각형 786" class="cls-1" width="48" height="48" transform="translate(0.478 0.129)"/>
    <g id="그룹_626" data-name="그룹 626" transform="translate(6.093 8.103)">
      <rect id="사각형_787" data-name="사각형 787" class="cls-2" width="8.097" height="8.097" rx="1.867" transform="translate(28.339 24.291)"/>
      <path id="패스_240" data-name="패스 240" class="cls-2" d="M1475.808,1068.313h-29.959a3.238,3.238,0,0,0-3.239,3.239v7.72a3.237,3.237,0,0,0,3.239,3.238h14.17v4.235h-13.36a.81.81,0,0,0-.81.809v5.048h-1.619a1.619,1.619,0,0,0-1.62,1.62v4.858a1.619,1.619,0,0,0,1.62,1.62h4.858a1.619,1.619,0,0,0,1.619-1.62v-4.858a1.619,1.619,0,0,0-1.619-1.62h-1.62v-4.239h12.551v4.239h-1.62a1.62,1.62,0,0,0-1.62,1.62v4.858a1.62,1.62,0,0,0,1.62,1.62h4.858a1.62,1.62,0,0,0,1.62-1.62v-4.858a1.62,1.62,0,0,0-1.62-1.62h-1.62v-4.239h12.551v4.175h1.62v-4.984a.81.81,0,0,0-.81-.809h-13.36v-4.235h14.17a3.237,3.237,0,0,0,3.239-3.238v-7.72A3.238,3.238,0,0,0,1475.808,1068.313Zm-23.076,8.919a1.822,1.822,0,1,1,1.822-1.822A1.819,1.819,0,0,1,1452.731,1077.232Zm8.1,0a1.822,1.822,0,1,1,1.822-1.822A1.822,1.822,0,0,1,1460.828,1077.232Zm8.1,0a1.822,1.822,0,1,1,1.822-1.822A1.822,1.822,0,0,1,1468.925,1077.232Z" transform="translate(-1442.61 -1068.313)"/>
    </g>
  </g>
</svg>
