<svg xmlns="http://www.w3.org/2000/svg" width="32" height="32" viewBox="0 0 32 32">
  <defs>
    <style>
      .cls-1 {
        fill: #46b2ea;
      }

      .cls-2 {
        fill: #fff;
      }
    </style>
  </defs>
  <g id="그룹_806" data-name="그룹 806" transform="translate(-707.846 -106)">
    <rect id="사각형_882" data-name="사각형 882" class="cls-1" width="32" height="32" rx="2" transform="translate(707.846 106)"/>
    <path id="패스_298" data-name="패스 298" class="cls-2" d="M-116.125,1814.48v-5.713a.536.536,0,0,0-.537-.537h-9.65a.536.536,0,0,0-.536.537v5.713a.536.536,0,0,1-.536.536h-5.629a.536.536,0,0,0-.537.536v16.268a.536.536,0,0,0,.537.536h23.053a.536.536,0,0,0,.536-.536v-16.268a.536.536,0,0,0-.536-.536h-5.629A.536.536,0,0,1-116.125,1814.48Z" transform="translate(845.332 -1698.293)"/>
    <path id="패스_299" data-name="패스 299" class="cls-1" d="M-117.54,1818.447h-3.142l1.058-4.291a.371.371,0,0,0-.07-.321.376.376,0,0,0-.3-.141h-3.733a.377.377,0,0,0-.37.293l-1.707,7.508a.384.384,0,0,0,.289.459.448.448,0,0,0,.082.01h2.683l-.5,6.665a.381.381,0,0,0,.353.406.38.38,0,0,0,.361-.2l5.333-9.82a.386.386,0,0,0-.157-.523A.376.376,0,0,0-117.54,1818.447Z" transform="translate(845.332 -1698.293)"/>
  </g>
</svg>
