<svg xmlns="http://www.w3.org/2000/svg" width="32" height="32" viewBox="0 0 32 32">
  <defs>
    <style>
      .cls-1 {
        fill: #2fa9e7;
      }

      .cls-2 {
        fill: #fff;
      }
    </style>
  </defs>
  <g id="그룹_801" data-name="그룹 801" transform="translate(-638 -106)">
    <rect id="사각형_881" data-name="사각형 881" class="cls-1" width="32" height="32" rx="2" transform="translate(638 106)"/>
    <path id="패스_296" data-name="패스 296" class="cls-2" d="M-160.971,1826.107v5.713a.536.536,0,0,1-.536.536h-9.651a.536.536,0,0,1-.536-.536v-5.713a.536.536,0,0,0-.536-.536h-5.629a.536.536,0,0,1-.536-.536v-16.268a.536.536,0,0,1,.536-.537h23.053a.536.536,0,0,1,.536.537v16.268a.536.536,0,0,1-.536.536h-5.629A.536.536,0,0,0-160.971,1826.107Z" transform="translate(820.332 -1698.293)"/>
    <path id="패스_297" data-name="패스 297" class="cls-1" d="M-162.386,1818.447h-3.141l1.057-4.291a.371.371,0,0,0-.07-.321.375.375,0,0,0-.3-.141h-3.733a.379.379,0,0,0-.371.293l-1.707,7.508a.384.384,0,0,0,.289.459.459.459,0,0,0,.082.01h2.683l-.5,6.665a.38.38,0,0,0,.352.406.38.38,0,0,0,.361-.2l5.333-9.82a.386.386,0,0,0-.156-.523A.383.383,0,0,0-162.386,1818.447Z" transform="translate(820.332 -1699.293)"/>
  </g>
</svg>
